<?xml version="1.0" encoding="UTF-8" standalone="no"?>
<svg
   xmlns:dc="http://purl.org/dc/elements/1.1/"
   xmlns:cc="http://creativecommons.org/ns#"
   xmlns:rdf="http://www.w3.org/1999/02/22-rdf-syntax-ns#"
   xmlns:svg="http://www.w3.org/2000/svg"
   xmlns="http://www.w3.org/2000/svg"
   xmlns:sodipodi="http://sodipodi.sourceforge.net/DTD/sodipodi-0.dtd"
   xmlns:inkscape="http://www.inkscape.org/namespaces/inkscape"
   id="svg"
   version="1.1"
   width="200"
   height="200"
   viewBox="0 0 200 200"
   sodipodi:docname="emoji-sad.svg"
   inkscape:version="0.92.4 5da689c313, 2019-01-14">
  <metadata
     id="metadata9">
    <rdf:RDF>
      <cc:Work
         rdf:about="">
        <dc:format>image/svg+xml</dc:format>
        <dc:type
           rdf:resource="http://purl.org/dc/dcmitype/StillImage" />
        <dc:title></dc:title>
      </cc:Work>
    </rdf:RDF>
  </metadata>
  <defs
     id="defs7" />
  <sodipodi:namedview
     pagecolor="#ffffff"
     bordercolor="#666666"
     borderopacity="1"
     objecttolerance="10"
     gridtolerance="10"
     guidetolerance="10"
     inkscape:pageopacity="0"
     inkscape:pageshadow="2"
     inkscape:window-width="1366"
     inkscape:window-height="740"
     id="namedview5"
     showgrid="false"
     inkscape:zoom="0.59"
     inkscape:cx="200"
     inkscape:cy="200"
     inkscape:window-x="0"
     inkscape:window-y="0"
     inkscape:window-maximized="1"
     inkscape:current-layer="svg" />
  <g
     id="svgg"
     transform="matrix(0.51249728,0,0,0.51245937,-2.3301537,-2.3840257)"
     style="fill:#000000;fill-opacity:1">
    <path
       id="path0"
       d="M 160.638,17.893 C 16.798,50.679 -34.905,227.24 68.928,331.072 154.702,416.847 302.667,397.876 361.066,293.617 411.074,204.339 380.097,87.375 293.617,38.934 255.8,17.751 199.997,8.921 160.638,17.893 m 80.851,9.934 C 377.45,60.873 423.096,230.951 322.022,327.897 235.046,411.322 92.434,385.024 40.292,275.944 -23.636,142.209 97.495,-7.171 241.489,27.827 M 126.785,166.121 c -7.858,9.338 -7.858,26.505 0,35.843 12.958,15.4 32.789,4.56 32.789,-17.921 0,-15.349 -7.137,-24.469 -19.148,-24.469 -6.47,0 -9.259,1.339 -13.641,6.547 m 119.149,0 c -12.874,15.299 -4.156,42.39 13.64,42.39 12.012,0 19.149,-9.12 19.149,-24.468 0,-15.349 -7.137,-24.469 -19.149,-24.469 -6.469,0 -9.259,1.339 -13.64,6.547 m -80.062,85.69 c -15.635,5.52 -18.839,7.734 -37.66,26.026 -15.567,15.129 -17.45,20.68 -4.276,12.608 50.264,-30.797 86.694,-32.702 137.598,-7.195 30.029,15.047 31.349,14.272 10.024,-5.89 -31.459,-29.743 -68.466,-38.689 -105.686,-25.549"
       inkscape:connector-curvature="0"
       style="fill:#000000;fill-rule:evenodd;stroke:none;fill-opacity:1" />
  </g>
</svg>
