<?xml version="1.0" encoding="UTF-8" standalone="no"?>
<svg
   xmlns:dc="http://purl.org/dc/elements/1.1/"
   xmlns:cc="http://creativecommons.org/ns#"
   xmlns:rdf="http://www.w3.org/1999/02/22-rdf-syntax-ns#"
   xmlns:svg="http://www.w3.org/2000/svg"
   xmlns="http://www.w3.org/2000/svg"
   xmlns:sodipodi="http://sodipodi.sourceforge.net/DTD/sodipodi-0.dtd"
   xmlns:inkscape="http://www.inkscape.org/namespaces/inkscape"
   id="svg"
   version="1.1"
   width="345"
   height="160"
   viewBox="0 0 345 160"
   sodipodi:docname="logo-dark.svg"
   inkscape:version="0.92.4 5da689c313, 2019-01-14"
   inkscape:export-filename="/home/alexander/hu.png"
   inkscape:export-xdpi="55.652172"
   inkscape:export-ydpi="55.652172">
  <metadata
     id="metadata13">
    <rdf:RDF>
      <cc:Work
         rdf:about="">
        <dc:format>image/svg+xml</dc:format>
        <dc:type
           rdf:resource="http://purl.org/dc/dcmitype/StillImage" />
        <dc:title />
      </cc:Work>
    </rdf:RDF>
  </metadata>
  <defs
     id="defs11" />
  <sodipodi:namedview
     pagecolor="#ffffff"
     bordercolor="#666666"
     borderopacity="1"
     objecttolerance="10"
     gridtolerance="10"
     guidetolerance="10"
     inkscape:pageopacity="0"
     inkscape:pageshadow="2"
     inkscape:window-width="1366"
     inkscape:window-height="740"
     id="namedview9"
     showgrid="false"
     inkscape:zoom="0.4225"
     inkscape:cx="676.76207"
     inkscape:cy="-73.634339"
     inkscape:window-x="0"
     inkscape:window-y="0"
     inkscape:window-maximized="1"
     inkscape:current-layer="svg" />
  <g
     id="g851"
     transform="matrix(1.0015514,0,0,1,-0.00775694,0)">
    <path
       sodipodi:nodetypes="csccsccsccccccccsccccccccsccccccccccccsccccccsscccccccccssccccc"
       id="path0"
       d="m 43.285158,5.3884196 c -0.305502,0.2953927 -0.401976,6.1274564 -0.401976,24.2707894 0,14.732713 -0.126622,24.200827 -0.32761,24.711935 l -0.3256,0.831763 H 24.030528 c -13.705356,0 -18.2959173,0.09523 -18.5994088,0.388675 -0.5748251,0.557748 -0.5748251,23.281612 0,23.83936 0.3034915,0.291506 4.9201808,0.388675 18.7200018,0.388675 h 18.318026 l 0.202998,0.728765 c 0.110543,0.400335 0.202998,17.218287 0.205007,37.374958 0.004,33.11508 0.05628,36.66562 0.534628,36.84247 1.15769,0.42948 23.155802,0.21766 23.535669,-0.22738 0.255254,-0.29733 0.397956,-9.41564 0.472321,-30.3652 0.09647,-26.492069 0.17084,-30.11063 0.647181,-31.416577 5.503045,-15.08835 25.173719,-17.626396 33.938799,-4.37842 0.64517,0.975573 1.17377,1.966694 1.17377,2.203785 0,0.235148 0.25726,0.785123 0.5708,1.218495 1.09538,1.511945 1.20794,4.19963 1.40692,33.525137 l 0.19897,29.47514 6.36529,0.0972 c 10.5398,0.1613 14.38268,-1.66742 16.88699,-8.03974 0.96876,-2.46225 1.10945,-57.420849 0.15878,-61.371726 -0.60095,-2.493348 -1.68428,-6.111909 -2.13248,-7.124407 -3.13943,-7.077766 -6.85971,-11.854577 -12.40095,-15.935661 -2.58269,-1.898676 -5.53319,-3.661315 -6.13615,-3.661315 -0.23717,0 -0.57282,-0.124376 -0.74768,-0.277903 -0.17486,-0.153526 -1.52549,-0.678237 -2.99874,-1.166024 -1.47324,-0.48973 -2.98064,-1.004724 -3.35046,-1.144647 -1.738546,-0.658803 -8.347024,-0.97946 -20.140987,-0.977516 -10.240327,0.0039 -12.845129,-0.08162 -13.142591,-0.427542 C 67.457958,54.468312 67.317267,48.50993 67.246921,34.931581 67.172555,20.711918 67.033874,15.149984 66.730382,14.119996 65.327487,9.3762216 62.15791,6.5175195 57.119147,5.4486642 54.468118,4.8850859 43.851943,4.838445 43.285158,5.3884196 M 142.10281,55.591582 c -0.68135,0.660747 -0.56478,60.808148 0.12863,65.680188 2.34151,16.45454 6.47583,22.67722 18.9833,28.57925 1.42701,0.67435 2.72941,1.22432 2.89221,1.22432 0.1628,0 0.72758,0.21766 1.25618,0.4839 0.52859,0.26624 1.23004,0.48585 1.56167,0.48585 0.33163,0.002 1.01097,0.20405 1.50741,0.44891 1.58378,0.78124 7.96916,1.88896 13.29936,2.30485 3.54944,0.2779 14.13949,-1.21073 16.30011,-2.29318 0.50448,-0.2507 1.18985,-0.45864 1.52148,-0.46058 0.33163,0 1.03307,-0.21961 1.56167,-0.48585 0.5286,-0.26624 1.10744,-0.4839 1.28833,-0.4839 0.64115,0 8.78317,-4.12967 10.44534,-5.29763 4.51418,-3.17548 8.5661,-9.00365 10.16596,-14.62194 0.203,-0.71128 0.55875,-1.95115 0.78988,-2.75182 1.39486,-4.8254 1.72247,-14.82405 1.51143,-45.993816 -0.10049,-14.87458 -0.18692,-27.080907 -0.19295,-27.125605 -0.0462,-0.32843 -24.05221,-0.02721 -24.3979,0.307053 -0.30752,0.297336 -0.40198,8.133017 -0.406,33.280268 -0.004,35.54041 0.0744,33.93907 -1.80688,37.52848 -2.79172,5.32484 -10.81716,8.94924 -17.38544,7.85123 -2.56662,-0.42949 -6.93207,-1.90645 -6.93207,-2.34565 0,-0.14575 -0.24521,-0.2643 -0.54669,-0.2643 -1.23406,0 -4.9644,-4.27542 -6.08993,-6.97671 l -1.07126,-2.57691 0.002,-27.55315 c 0.002,-34.16256 0.0181,-34.055674 -5.84272,-37.639254 -2.55857,-1.566359 -17.20656,-2.596347 -18.54313,-1.304004"
       inkscape:connector-curvature="0"
       style="fill:#131436;fill-rule:evenodd;stroke:none;stroke-width:1.97634578" />
    <path
       sodipodi:nodetypes="ccsccccccccccccccccccccccccccccc"
       id="path1"
       d="m 282.16516,57.047169 c -0.39996,0.07579 -0.90846,0.347863 -1.12955,0.604389 -0.21907,0.256525 -0.59291,0.466409 -0.83008,0.466409 -0.92655,0 -3.57356,3.468922 -6.36528,8.339015 -1.6079,2.806231 -3.7846,6.560828 -4.83577,8.340958 -1.05116,1.782074 -3.69214,6.372321 -5.86884,10.20271 -2.17469,3.830389 -4.49811,7.880379 -5.16137,8.999762 -2.66308,4.491136 -3.41679,5.806799 -4.22074,7.357608 -0.46026,0.89007 -0.98886,1.83843 -1.17176,2.10468 -0.49443,0.71904 -3.7444,6.40535 -6.25474,10.94702 -0.62105,1.12327 -1.53152,2.6527 -2.02193,3.4009 -0.49242,0.75014 -1.48731,2.45448 -2.21288,3.79152 -2.34151,4.31429 -2.74147,5.01585 -2.95653,5.18104 -0.11657,0.0894 -0.58487,0.892 -1.0371,1.78207 -0.83611,1.63826 -2.99672,5.42201 -3.60572,6.31596 -6.72103,9.84902 -5.7382,16.99869 2.67716,19.47649 2.67314,0.78707 92.98097,0.64326 95.54557,-0.15158 7.58729,-2.35148 8.86557,-8.70632 3.46704,-17.22023 -0.45222,-0.71128 -1.18181,-1.95115 -1.62197,-2.75182 -0.44017,-0.80261 -1.19588,-2.12799 -1.67825,-2.9481 -0.48237,-0.8201 -1.24009,-2.13188 -1.68227,-2.91506 -0.44217,-0.78318 -1.36068,-2.40395 -2.04203,-3.59913 -0.67934,-1.19517 -1.64408,-2.89562 -2.14253,-3.77986 -0.49845,-0.88229 -1.45314,-2.52638 -2.12042,-3.65548 -0.66728,-1.12716 -1.66418,-2.85287 -2.21489,-3.83233 -2.0762,-3.68658 -3.95343,-6.97671 -4.27702,-7.49559 -0.18491,-0.29345 -0.72959,-1.24182 -1.20995,-2.10662 -2.14856,-3.85565 -2.5847,-4.617456 -3.87102,-6.755167 -0.75169,-1.245702 -3.21581,-5.546387 -5.47893,-9.553623 -2.26111,-4.009179 -4.59257,-8.090263 -5.17945,-9.069723 -1.628,-2.718779 -6.19445,-10.665233 -8.62841,-15.016445 -3.06104,-5.46671 -6.67882,-7.435347 -11.87034,-6.459773"
       inkscape:connector-curvature="0"
       style="fill:#f3170f;fill-rule:evenodd;stroke:none;stroke-width:1.97634578" />
  </g>
</svg>
