<?xml version="1.0" encoding="UTF-8" standalone="no"?>
<!-- Generator: Adobe Illustrator 19.0.0, SVG Export Plug-In . SVG Version: 6.00 Build 0)  -->

<svg
   xmlns:dc="http://purl.org/dc/elements/1.1/"
   xmlns:cc="http://creativecommons.org/ns#"
   xmlns:rdf="http://www.w3.org/1999/02/22-rdf-syntax-ns#"
   xmlns:svg="http://www.w3.org/2000/svg"
   xmlns="http://www.w3.org/2000/svg"
   xmlns:xlink="http://www.w3.org/1999/xlink"
   xmlns:sodipodi="http://sodipodi.sourceforge.net/DTD/sodipodi-0.dtd"
   xmlns:inkscape="http://www.inkscape.org/namespaces/inkscape"
   version="1.1"
   id="Capa_1"
   x="0px"
   y="0px"
   viewBox="0 0 50 50"
   xml:space="preserve"
   sodipodi:docname="logo.svg"
   width="50"
   height="50"
   inkscape:version="0.92.4 5da689c313, 2019-01-14"
   inkscape:export-xdpi="184.32001"
   inkscape:export-ydpi="184.32001"><metadata
   id="metadata69"><rdf:RDF><cc:Work
       rdf:about=""><dc:format>image/svg+xml</dc:format><dc:type
         rdf:resource="http://purl.org/dc/dcmitype/StillImage" /><dc:title /></cc:Work></rdf:RDF></metadata><defs
   id="defs67"><linearGradient
     gradientTransform="matrix(1.0000426,0,0,1,0.499958,0.5)"
     y2="46"
     y1="2"
     x2="24"
     x1="24"
     gradientUnits="userSpaceOnUse"
     id="linearGradient4171"><stop
       style="stop-color:#1976d2;stop-opacity:1"
       offset="0"
       id="stop2" /><stop
       style="stop-color:#0d47a1;stop-opacity:1"
       offset="1"
       id="stop4" /></linearGradient><linearGradient
     inkscape:collect="always"
     xlink:href="#linearGradient4171"
     id="linearGradient907"
     x1="25"
     y1="1.6250001"
     x2="24.626961"
     y2="47.25"
     gradientUnits="userSpaceOnUse" /></defs><sodipodi:namedview
   pagecolor="#ffffff"
   bordercolor="#666666"
   borderopacity="1"
   objecttolerance="10"
   gridtolerance="10"
   guidetolerance="10"
   inkscape:pageopacity="0"
   inkscape:pageshadow="2"
   inkscape:window-width="1366"
   inkscape:window-height="740"
   id="namedview65"
   showgrid="false"
   showguides="false"
   inkscape:zoom="8"
   inkscape:cx="9.5"
   inkscape:cy="26.458612"
   inkscape:window-x="0"
   inkscape:window-y="0"
   inkscape:window-maximized="1"
   inkscape:current-layer="Capa_1" />














<g
   id="g34"
   transform="translate(1.5,-10.5)">
</g>
<g
   id="g36"
   transform="translate(1.5,-10.5)">
</g>
<g
   id="g38"
   transform="translate(1.5,-10.5)">
</g>
<g
   id="g40"
   transform="translate(1.5,-10.5)">
</g>
<g
   id="g42"
   transform="translate(1.5,-10.5)">
</g>
<g
   id="g44"
   transform="translate(1.5,-10.5)">
</g>
<g
   id="g46"
   transform="translate(1.5,-10.5)">
</g>
<g
   id="g48"
   transform="translate(1.5,-10.5)">
</g>
<g
   id="g50"
   transform="translate(1.5,-10.5)">
</g>
<g
   id="g52"
   transform="translate(1.5,-10.5)">
</g>
<g
   id="g54"
   transform="translate(1.5,-10.5)">
</g>
<g
   id="g56"
   transform="translate(1.5,-10.5)">
</g>
<g
   id="g58"
   transform="translate(1.5,-10.5)">
</g>
<g
   id="g60"
   transform="translate(1.5,-10.5)">
</g>
<g
   id="g62"
   transform="translate(1.5,-10.5)">
</g>
<g
   transform="matrix(1.0000426,0,0,1,0.499958,0.5)"
   id="g15"><path
     inkscape:connector-curvature="0"
     d="m 36.31,5 c 5.859,4.062 9.688,10.831 9.688,18.5 0,12.426 -10.07,22.5 -22.5,22.5 -7.669,0 -14.438,-3.828 -18.5,-9.688 1.037,1.822 2.306,3.499 3.781,4.969 4.085,3.712 9.514,5.969 15.469,5.969 12.703,0 23,-10.298 23,-23 0,-5.954 -2.256,-11.384 -5.969,-15.469 C 39.81,7.306 38.132,6.037 36.31,5 Z m 4.969,3.781 c 3.854,4.113 6.219,9.637 6.219,15.719 0,12.703 -10.297,23 -23,23 -6.081,0 -11.606,-2.364 -15.719,-6.219 4.16,4.144 9.883,6.719 16.219,6.719 12.703,0 23,-10.298 23,-23 0,-6.335 -2.575,-12.06 -6.719,-16.219 z"
     style="opacity:0.05"
     id="path9" /><path
     inkscape:connector-curvature="0"
     d="m 41.28,8.781 c 3.712,4.085 5.969,9.514 5.969,15.469 0,12.703 -10.297,23 -23,23 -5.954,0 -11.384,-2.256 -15.469,-5.969 4.113,3.854 9.637,6.219 15.719,6.219 12.703,0 23,-10.298 23,-23 0,-6.081 -2.364,-11.606 -6.219,-15.719 z"
     style="opacity:0.1"
     id="path11" /><path
     inkscape:connector-curvature="0"
     d="M 31.25,2.375 C 39.865,5.529 46,13.792 46,23.505 c 0,12.426 -10.07,22.5 -22.5,22.5 -9.708,0 -17.971,-6.135 -21.12,-14.75 a 23,23 0 0 0 44.875,-7 23,23 0 0 0 -16,-21.875 z"
     style="opacity:0.2"
     id="path13" /></g><path
   inkscape:connector-curvature="0"
   style="opacity:1;fill:url(#linearGradient907);fill-opacity:1;stroke-width:1.00002134"
   d="M 47.50196,24.5 A 23.000981,23.000001 0 0 1 24.500979,47.5 23.000981,23.000001 0 0 1 1.5,24.5 23.000981,23.000001 0 0 1 24.500979,1.5000002 23.000981,23.000001 0 0 1 47.50196,24.5 Z"
   id="path17" /><g
   transform="matrix(1.0000426,0,0,1,0.499958,0.5)"
   id="g21"><path
     inkscape:connector-curvature="0"
     d="m 40.03,7.531 c 3.712,4.084 5.969,9.514 5.969,15.469 0,12.703 -10.297,23 -23,23 C 17.045,46 11.615,43.744 7.53,40.031 11.708,44.322 17.54,47 23.999,47 c 12.703,0 23,-10.298 23,-23 0,-6.462 -2.677,-12.291 -6.969,-16.469 z"
     style="opacity:0.1"
     id="path19" /></g><g
   id="g899"
   style="fill:#ffffff;fill-opacity:1"><path
     sodipodi:nodetypes="ccssccccsscccccssscccsssccccsccccccccccccccccccccccccc"
     inkscape:connector-curvature="0"
     id="rect2491-3-3"
     d="m 28.910156,7.5097656 -9.419922,0.00195 c -0.202273,-0.00969 -0.460959,0.020818 -0.80664,0.1113281 -0.345682,0.09051 -0.757994,0.2450314 -1.175782,0.5078125 -0.835575,0.525562 -1.67896,1.5026326 -1.945312,3.1054688 l -0.0059,0.03906 0.0059,4.677734 h -4.375 C 8.8757017,15.953125 7,17.832013 7,20.146484 v 9.00586 c 0,2.314471 1.8757103,4.193282 4.1875,4.193359 h 4.367188 l 0.0059,4.832031 0.002,-0.02734 c -0.05287,0.939113 0.284854,1.992798 0.96875,2.847656 0.683808,0.854855 1.748623,1.50195 3.087803,1.50195 h 9.427734 c 1.274055,0 2.284404,-0.659646 2.9375,-1.511719 0.653096,-0.852073 0.98897,-1.891619 0.990234,-2.810547 v -0.0039 l -0.05469,-4.828125 H 37.8125 c 2.311798,0 4.1875,-1.878888 4.1875,-4.193359 v -9.00586 c 0,-2.314471 -1.875699,-4.193362 -4.1875,-4.193359 h -4.902344 v -4.716797 l -0.0059,-0.03711 C 32.630679,9.521591 31.698656,8.5385919 30.8125,8.0390625 30.369422,7.7892978 29.940919,7.6517261 29.597656,7.578125 29.426025,7.541324 29.276145,7.521664 29.152344,7.511719 29.028542,7.501769 28.966497,7.489997 28.818359,7.519529 Z m -1.963907,11.5841874 2.994346,-0.04231 0.0025,2.934446 2.659098,-0.02386 -0.01301,5.727133 -2.657323,-0.0098 -0.0051,3.060067 -3.031868,0.02763 0.04524,2.380146 -5.537269,-0.01704 -0.0086,-2.485444 -2.945001,0.05202 0.01521,-3.043127 -2.757308,0.02026 -0.01209,-5.702521 2.655994,0.01421 0.02781,-2.832106 2.92388,-0.04178 0.0429,-2.916623 5.599491,-0.02332 z"
     style="color:#000000;font-style:normal;font-variant:normal;font-weight:normal;font-stretch:normal;font-size:medium;line-height:normal;font-family:sans-serif;font-variant-ligatures:normal;font-variant-position:normal;font-variant-caps:normal;font-variant-numeric:normal;font-variant-alternates:normal;font-feature-settings:normal;text-indent:0;text-align:start;text-decoration:none;text-decoration-line:none;text-decoration-style:solid;text-decoration-color:#000000;letter-spacing:normal;word-spacing:normal;text-transform:none;writing-mode:lr-tb;direction:ltr;text-orientation:mixed;dominant-baseline:auto;baseline-shift:baseline;text-anchor:start;white-space:normal;shape-padding:0;clip-rule:nonzero;display:inline;overflow:visible;visibility:visible;opacity:1;isolation:auto;mix-blend-mode:normal;color-interpolation:sRGB;color-interpolation-filters:linearRGB;solid-color:#000000;solid-opacity:1;vector-effect:none;fill:#ffffff;fill-opacity:1;fill-rule:nonzero;stroke:none;stroke-width:0.93894875;stroke-linecap:butt;stroke-linejoin:miter;stroke-miterlimit:4;stroke-dasharray:none;stroke-dashoffset:0;stroke-opacity:1;color-rendering:auto;image-rendering:auto;shape-rendering:auto;text-rendering:auto;enable-background:accumulate" /><path
     sodipodi:nodetypes="cccc"
     inkscape:connector-curvature="0"
     id="rect894"
     d="m 24.183643,20.600866 3.569902,7.245285 -7.00835,-0.01078 z"
     style="fill:#ffffff;fill-opacity:1;stroke:none;stroke-opacity:0.65829145" /></g></svg>