<?xml version="1.0" encoding="UTF-8" standalone="no"?>
<!-- Generator: Adobe Illustrator 19.0.0, SVG Export Plug-In . SVG Version: 6.00 Build 0)  -->

<svg
   xmlns:dc="http://purl.org/dc/elements/1.1/"
   xmlns:cc="http://creativecommons.org/ns#"
   xmlns:rdf="http://www.w3.org/1999/02/22-rdf-syntax-ns#"
   xmlns:svg="http://www.w3.org/2000/svg"
   xmlns="http://www.w3.org/2000/svg"
   xmlns:xlink="http://www.w3.org/1999/xlink"
   xmlns:sodipodi="http://sodipodi.sourceforge.net/DTD/sodipodi-0.dtd"
   xmlns:inkscape="http://www.inkscape.org/namespaces/inkscape"
   version="1.1"
   id="Capa_1"
   x="0px"
   y="0px"
   viewBox="0 0 50 50"
   xml:space="preserve"
   sodipodi:docname="logo-circle.svg"
   width="50"
   height="50"
   inkscape:version="0.92.4 5da689c313, 2019-01-14"
   inkscape:export-xdpi="184.32001"
   inkscape:export-ydpi="184.32001"><metadata
   id="metadata69"><rdf:RDF><cc:Work
       rdf:about=""><dc:format>image/svg+xml</dc:format><dc:type
         rdf:resource="http://purl.org/dc/dcmitype/StillImage" /><dc:title /></cc:Work></rdf:RDF></metadata><defs
   id="defs67"><linearGradient
     gradientTransform="matrix(1.0000426,0,0,1,0.499958,0.5)"
     y2="46"
     y1="2"
     x2="24"
     x1="24"
     gradientUnits="userSpaceOnUse"
     id="linearGradient4171"><stop
       style="stop-color:#202060;stop-opacity:1"
       offset="0"
       id="stop2" /><stop
       style="stop-color:#202040;stop-opacity:1"
       offset="1"
       id="stop4" /></linearGradient><linearGradient
     inkscape:collect="always"
     xlink:href="#linearGradient4171"
     id="linearGradient907"
     x1="25"
     y1="1.6250001"
     x2="24.626961"
     y2="47.25"
     gradientUnits="userSpaceOnUse" /><filter
     inkscape:collect="always"
     style="color-interpolation-filters:sRGB"
     id="filter2091"
     x="-0.011860866"
     width="1.0237217"
     y="-0.012142437"
     height="1.0242849"><feGaussianBlur
       inkscape:collect="always"
       stdDeviation="0.17791299"
       id="feGaussianBlur2093" /></filter></defs><sodipodi:namedview
   pagecolor="#ffffff"
   bordercolor="#666666"
   borderopacity="1"
   objecttolerance="10"
   gridtolerance="10"
   guidetolerance="10"
   inkscape:pageopacity="0"
   inkscape:pageshadow="2"
   inkscape:window-width="1366"
   inkscape:window-height="740"
   id="namedview65"
   showgrid="false"
   showguides="false"
   inkscape:zoom="11.048751"
   inkscape:cx="21.296671"
   inkscape:cy="23.250778"
   inkscape:window-x="0"
   inkscape:window-y="0"
   inkscape:window-maximized="1"
   inkscape:current-layer="Capa_1" />














<g
   id="g34"
   transform="translate(1.5,-10.5)">
</g>
<g
   id="g36"
   transform="translate(1.5,-10.5)">
</g>
<g
   id="g38"
   transform="translate(1.5,-10.5)">
</g>
<g
   id="g40"
   transform="translate(1.5,-10.5)">
</g>
<g
   id="g42"
   transform="translate(1.5,-10.5)">
</g>
<g
   id="g44"
   transform="translate(1.5,-10.5)">
</g>
<g
   id="g46"
   transform="translate(1.5,-10.5)">
</g>
<g
   id="g48"
   transform="translate(1.5,-10.5)">
</g>
<g
   id="g50"
   transform="translate(1.5,-10.5)">
</g>
<g
   id="g52"
   transform="translate(1.5,-10.5)">
</g>
<g
   id="g54"
   transform="translate(1.5,-10.5)">
</g>
<g
   id="g56"
   transform="translate(1.5,-10.5)">
</g>
<g
   id="g58"
   transform="translate(1.5,-10.5)">
</g>
<g
   id="g60"
   transform="translate(1.5,-10.5)">
</g>
<g
   id="g62"
   transform="translate(1.5,-10.5)">
</g>
<g
   transform="matrix(1.0000426,0,0,1,0.499958,0.5)"
   id="g15"
   style="fill:#808080"><path
     inkscape:connector-curvature="0"
     d="m 36.31,5 c 5.859,4.062 9.688,10.831 9.688,18.5 0,12.426 -10.07,22.5 -22.5,22.5 -7.669,0 -14.438,-3.828 -18.5,-9.688 1.037,1.822 2.306,3.499 3.781,4.969 4.085,3.712 9.514,5.969 15.469,5.969 12.703,0 23,-10.298 23,-23 0,-5.954 -2.256,-11.384 -5.969,-15.469 C 39.81,7.306 38.132,6.037 36.31,5 Z m 4.969,3.781 c 3.854,4.113 6.219,9.637 6.219,15.719 0,12.703 -10.297,23 -23,23 -6.081,0 -11.606,-2.364 -15.719,-6.219 4.16,4.144 9.883,6.719 16.219,6.719 12.703,0 23,-10.298 23,-23 0,-6.335 -2.575,-12.06 -6.719,-16.219 z"
     style="opacity:0.05;fill:#808080"
     id="path9" /><path
     inkscape:connector-curvature="0"
     d="m 41.28,8.781 c 3.712,4.085 5.969,9.514 5.969,15.469 0,12.703 -10.297,23 -23,23 -5.954,0 -11.384,-2.256 -15.469,-5.969 4.113,3.854 9.637,6.219 15.719,6.219 12.703,0 23,-10.298 23,-23 0,-6.081 -2.364,-11.606 -6.219,-15.719 z"
     style="opacity:0.1;fill:#808080"
     id="path11" /><path
     inkscape:connector-curvature="0"
     d="M 31.25,2.375 C 39.865,5.529 46,13.792 46,23.505 c 0,12.426 -10.07,22.5 -22.5,22.5 -9.708,0 -17.971,-6.135 -21.12,-14.75 a 23,23 0 0 0 44.875,-7 23,23 0 0 0 -16,-21.875 z"
     style="opacity:0.2;fill:#808080"
     id="path13" /></g><path
   inkscape:connector-curvature="0"
   style="opacity:1;fill:url(#linearGradient907);fill-opacity:1;stroke-width:1.00002134"
   d="M 47.50196,24.5 A 23.000981,23.000001 0 0 1 24.500979,47.5 23.000981,23.000001 0 0 1 1.5,24.5 23.000981,23.000001 0 0 1 24.500979,1.5000002 23.000981,23.000001 0 0 1 47.50196,24.5 Z"
   id="path17" /><g
   id="g941"
   style="opacity:0.15"><path
     transform="matrix(0.88201494,0,0,0.91577778,6.328498,1.7662543)"
     sodipodi:nodetypes="ccsccccccccccccccccccccccccccccc"
     id="path1-6"
     d="m 24.664551,5.07341 c -0.127952,0.023186 -0.290617,0.1064103 -0.361344,0.1848826 -0.07009,0.078472 -0.189671,0.142669 -0.265544,0.142669 -0.296405,0 -1.143187,1.061123 -2.036262,2.5508568 -0.514371,0.8584109 -1.210699,2.0069195 -1.546972,2.5514526 -0.336266,0.545127 -1.181119,1.949255 -1.877449,3.120949 -0.695686,1.171696 -1.438952,2.410564 -1.65113,2.752978 -0.851922,1.373812 -1.093036,1.776267 -1.350219,2.250651 -0.147235,0.272264 -0.316339,0.562362 -0.374849,0.643808 -0.158169,0.219951 -1.197839,1.95936 -2.000901,3.348632 -0.198679,0.343602 -0.489937,0.811446 -0.646818,1.040315 -0.157527,0.229465 -0.475794,0.750813 -0.707904,1.159805 -0.749052,1.319717 -0.876999,1.534318 -0.945796,1.584849 -0.03731,0.02736 -0.187103,0.272859 -0.331772,0.545126 -0.267472,0.501135 -0.958654,1.658563 -1.1534751,1.932015 -2.1500677,3.012759 -1.8356577,5.199805 0.8564281,5.957749 0.855142,0.24076 29.744747,0.196773 30.565167,-0.04637 2.427183,-0.719305 2.836107,-2.663215 1.10911,-5.267572 -0.144666,-0.217578 -0.378063,-0.596846 -0.51887,-0.841768 -0.140814,-0.245518 -0.382565,-0.650944 -0.536875,-0.901812 -0.154317,-0.250865 -0.396706,-0.65213 -0.538161,-0.891701 -0.141456,-0.23957 -0.435282,-0.735353 -0.653248,-1.100952 -0.217321,-0.365597 -0.525944,-0.885755 -0.685399,-1.156238 -0.159453,-0.269888 -0.464861,-0.772805 -0.678325,-1.118191 -0.213466,-0.344791 -0.532374,-0.872677 -0.708548,-1.172288 -0.664177,-1.127698 -1.264706,-2.13413 -1.368223,-2.292852 -0.05914,-0.08978 -0.233397,-0.379866 -0.387066,-0.644404 -0.687327,-1.179422 -0.82685,-1.412452 -1.238345,-2.066365 -0.240466,-0.381053 -1.028741,-1.69661 -1.752717,-2.9224 C 32.155711,13.190856 31.409873,11.942473 31.22213,11.642863 30.70133,10.811204 29.240516,8.3804293 28.461889,7.049418 27.48266,5.3771834 26.325327,4.7749877 24.664551,5.07341"
     inkscape:connector-curvature="0"
     style="fill:#ffffff;fill-rule:evenodd;stroke:none;stroke-width:0.61823946;filter:url(#filter2091)" /><path
     transform="matrix(0.88201494,0,0,0.91577778,2.328498,1.7662543)"
     sodipodi:nodetypes="csccsccsccccccccsccccccccsccccccccccccsccccccsscccccccccssccccc"
     id="path0-2"
     d="m 12.623583,17.181272 c -0.04488,0.04538 -0.05904,0.941324 -0.05904,3.728575 0,2.263298 -0.0186,3.717827 -0.04812,3.796346 l -0.04782,0.127779 H 9.7953354 c -2.0131371,0 -2.6874303,0.01464 -2.7320092,0.05971 -0.084435,0.08568 -0.084435,3.576614 0,3.662297 0.04458,0.04479 0.72271,0.05971 2.7497225,0.05971 h 2.6906773 l 0.02982,0.111955 c 0.01623,0.0615 0.02981,2.645141 0.0301,5.741689 5.88e-4,5.087271 0.0082,5.632719 0.07853,5.659886 0.17005,0.06598 3.401285,0.03344 3.457081,-0.03493 0.0375,-0.04568 0.05845,-1.446468 0.06937,-4.664822 0.01417,-4.069817 0.02509,-4.625714 0.09506,-4.826339 0.808327,-2.317933 3.69769,-2.707836 4.985165,-0.67263 0.09477,0.149871 0.172412,0.302131 0.172412,0.338554 0,0.03612 0.0378,0.120614 0.08385,0.18719 0.160897,0.232271 0.17743,0.645163 0.206658,5.150264 l 0.02922,4.528088 0.934978,0.01493 c 1.548158,0.02479 2.112626,-0.256155 2.480476,-1.235096 0.142299,-0.37826 0.162965,-8.821219 0.02333,-9.428168 -0.08827,-0.383038 -0.247399,-0.938936 -0.313234,-1.094479 -0.461141,-1.087315 -1.007602,-1.821148 -1.821536,-2.448101 -0.379364,-0.291681 -0.812754,-0.562465 -0.90132,-0.562465 -0.03483,0 -0.08414,-0.01911 -0.109826,-0.04269 -0.02569,-0.02359 -0.224073,-0.104194 -0.440474,-0.17913 -0.2164,-0.07524 -0.437817,-0.15435 -0.492139,-0.175845 -0.25537,-0.101207 -1.226069,-0.150468 -2.958447,-0.150169 -1.50417,5.99e-4 -1.88678,-0.01254 -1.930474,-0.06568 -0.03809,-0.04658 -0.05875,-0.961929 -0.06908,-3.047888 -0.01093,-2.184481 -0.03129,-3.038927 -0.07587,-3.197159 -0.206067,-0.728757 -0.671637,-1.167922 -1.411764,-1.332123 -0.389403,-0.08658 -1.948779,-0.09374 -2.032033,-0.0092 m 14.515022,7.71237 c -0.100081,0.101505 -0.08297,9.341589 0.01889,10.090051 0.343936,2.527813 0.951214,3.483766 2.788397,4.390459 0.209609,0.103596 0.400914,0.188084 0.424827,0.188084 0.02391,0 0.106872,0.03344 0.184517,0.07434 0.07765,0.0409 0.180677,0.07464 0.22939,0.07464 0.04871,3.06e-4 0.148498,0.03135 0.221418,0.06897 0.232636,0.120017 1.170564,0.290189 1.953502,0.354081 0.521366,0.04269 2.076904,-0.185998 2.394271,-0.352289 0.0741,-0.03851 0.174773,-0.07046 0.223486,-0.07076 0.04871,0 0.151744,-0.03374 0.229389,-0.07464 0.07765,-0.04091 0.162668,-0.07434 0.189239,-0.07434 0.09418,0 1.290133,-0.634416 1.534283,-0.813843 0.663073,-0.487829 1.258249,-1.383176 1.493246,-2.24628 0.02982,-0.109269 0.08208,-0.299743 0.116024,-0.422745 0.204886,-0.741297 0.253007,-2.27733 0.222009,-7.065753 -0.01476,-2.285092 -0.02746,-4.160277 -0.02834,-4.167144 -0.0068,-0.05045 -3.532954,-0.0042 -3.583732,0.04717 -0.04517,0.04568 -0.05904,1.249427 -0.05963,5.112647 -5.87e-4,5.459859 0.01093,5.213855 -0.265407,5.765274 -0.410067,0.818023 -1.588899,1.374818 -2.553692,1.206138 -0.377004,-0.06598 -1.018231,-0.292877 -1.018231,-0.360349 0,-0.02239 -0.03601,-0.04061 -0.0803,-0.04061 -0.181267,0 -0.729205,-0.656807 -0.894531,-1.071789 l -0.157353,-0.395876 2.93e-4,-4.232824 c 2.94e-4,-5.248188 0.0026,-5.231767 -0.858218,-5.782291 -0.375822,-0.240631 -2.527419,-0.398861 -2.723744,-0.200327"
     inkscape:connector-curvature="0"
     style="fill:#ffffff;fill-rule:evenodd;stroke:none;stroke-width:0.296882;filter:url(#filter2091)" /></g><path
   style="fill:#f3170f;fill-rule:evenodd;stroke:none;stroke-width:0.55563521"
   inkscape:connector-curvature="0"
   d="m 27.200986,6.5938936 c -0.112856,0.021233 -0.256329,0.097448 -0.318711,0.1693114 -0.06182,0.071863 -0.167293,0.1306531 -0.234214,0.1306531 -0.261434,0 -1.008308,0.9717529 -1.796014,2.336018 -0.453682,0.7861139 -1.067854,1.8378929 -1.364452,2.3365639 -0.296592,0.499215 -1.041765,1.785084 -1.655938,2.858096 -0.613605,1.073013 -1.269177,2.207541 -1.456321,2.521116 -0.751408,1.258106 -0.964074,1.626666 -1.190914,2.061096 -0.129863,0.249333 -0.279015,0.514999 -0.330622,0.589585 -0.139507,0.201426 -1.056512,1.794338 -1.764825,3.066603 -0.175237,0.314663 -0.432131,0.743104 -0.570503,0.952697 -0.138941,0.210139 -0.419657,0.687578 -0.624382,1.062124 -0.660675,1.208567 -0.773526,1.405094 -0.834206,1.451369 -0.03291,0.02506 -0.165028,0.249878 -0.292628,0.499215 -0.235914,0.458928 -0.845547,1.518875 -1.017382,1.769296 -1.896392,2.759018 -1.619077,4.761866 0.755382,5.455974 0.754248,0.220483 26.235312,0.1802 26.958934,-0.04246 2.140812,-0.658723 2.501489,-2.438913 0.978252,-4.823925 -0.127598,-0.199253 -0.333457,-0.546578 -0.457651,-0.770872 -0.1242,-0.22484 -0.337428,-0.59612 -0.473532,-0.82586 -0.13611,-0.229736 -0.349901,-0.597206 -0.474666,-0.8166 -0.124766,-0.219393 -0.383925,-0.67342 -0.576175,-1.008227 -0.19168,-0.334806 -0.46389,-0.811155 -0.604532,-1.058857 -0.14064,-0.247158 -0.410014,-0.707718 -0.598292,-1.024015 -0.188281,-0.315752 -0.469562,-0.799178 -0.62495,-1.073555 -0.585814,-1.032721 -1.11549,-1.954389 -1.206794,-2.099743 -0.05216,-0.08222 -0.205859,-0.347873 -0.341398,-0.590131 -0.606232,-1.080088 -0.729294,-1.293492 -1.092238,-1.892331 -0.212095,-0.34896 -0.907365,-1.553718 -1.545923,-2.676269 -0.63799,-1.12309 -1.295831,-2.266332 -1.461423,-2.540708 C 32.525515,11.848438 31.237055,9.6223884 30.550294,8.4034779 29.6866,6.8720826 28.665815,6.3206051 27.200986,6.5938936"
   id="path1"
   sodipodi:nodetypes="ccsccccccccccccccccccccccccccccc" /><path
   style="fill:#ffffff;fill-rule:evenodd;stroke:none;stroke-width:0.26681909"
   inkscape:connector-curvature="0"
   d="m 12.580672,17.193877 c -0.03959,0.04156 -0.05207,0.862043 -0.05207,3.414546 0,2.072678 -0.01641,3.404703 -0.04244,3.476609 l -0.04218,0.117017 H 10.08612 c -1.7756167,0 -2.3703534,0.01341 -2.4096727,0.05468 -0.074473,0.07846 -0.074473,3.275383 0,3.35385 0.03932,0.04102 0.6374411,0.05468 2.4252967,0.05468 h 2.373217 l 0.0263,0.102526 c 0.01431,0.05632 0.02629,2.422361 0.02655,5.258111 5.18e-4,4.65881 0.0072,5.158319 0.06926,5.183198 0.149987,0.06042 2.999984,0.03062 3.049197,-0.03199 0.03308,-0.04183 0.05155,-1.324644 0.06119,-4.271941 0.0125,-3.727048 0.02213,-4.236126 0.08384,-4.419854 0.712957,-2.122711 3.261418,-2.479776 4.39699,-0.615979 0.08359,0.137248 0.15207,0.276685 0.15207,0.31004 0,0.03308 0.03334,0.110456 0.07396,0.171424 0.141913,0.212709 0.156496,0.590826 0.182275,4.716498 l 0.02577,4.146722 0.824664,0.01367 c 1.365499,0.0227 1.863368,-0.234581 2.187817,-1.131074 0.12551,-0.346402 0.143738,-8.078276 0.02058,-8.634107 -0.07786,-0.350777 -0.21821,-0.859856 -0.276277,-1.002299 -0.406734,-0.995739 -0.88872,-1.667767 -1.606622,-2.241917 -0.334605,-0.267115 -0.716861,-0.515093 -0.794978,-0.515093 -0.03072,0 -0.07421,-0.0175 -0.09687,-0.03909 -0.02266,-0.0216 -0.197636,-0.09542 -0.388505,-0.164043 -0.190868,-0.0689 -0.386161,-0.141351 -0.434074,-0.161035 -0.22524,-0.09268 -1.081411,-0.137796 -2.609394,-0.137522 -1.326701,5.49e-4 -1.664168,-0.01148 -1.702707,-0.06015 -0.0336,-0.04266 -0.05182,-0.880913 -0.06093,-2.791188 -0.0096,-2.000499 -0.0276,-2.782982 -0.06692,-2.927887 -0.181754,-0.66738 -0.592394,-1.069557 -1.245197,-1.219929 -0.343459,-0.07929 -1.718852,-0.08585 -1.792284,-0.0084 m 12.802467,7.062817 c -0.08827,0.09296 -0.07318,8.55482 0.01666,9.240244 0.303357,2.314915 0.838985,3.190356 2.459408,4.020685 0.184878,0.09487 0.353612,0.172243 0.374703,0.172243 0.02109,0 0.09426,0.03062 0.162747,0.06808 0.06849,0.03746 0.15936,0.06835 0.202326,0.06835 0.04296,2.8e-4 0.130977,0.02871 0.195294,0.06316 0.205188,0.109909 1.032455,0.265749 1.723018,0.32426 0.459852,0.03909 1.83186,-0.170333 2.111782,-0.322619 0.06536,-0.03527 0.154153,-0.06452 0.197118,-0.0648 0.04296,0 0.133841,-0.0309 0.202325,-0.06835 0.06849,-0.03746 0.143475,-0.06808 0.166911,-0.06808 0.08307,0 1.137917,-0.580984 1.353261,-0.745299 0.58484,-0.446743 1.109794,-1.266682 1.317065,-2.057093 0.0263,-0.100067 0.0724,-0.274498 0.102335,-0.387141 0.180713,-0.678863 0.223156,-2.085528 0.195815,-6.47066 -0.01302,-2.092636 -0.02422,-3.809889 -0.025,-3.816177 -0.006,-0.0462 -3.116118,-0.0038 -3.160905,0.0432 -0.03984,0.04183 -0.05207,1.144197 -0.0526,4.682048 -5.17e-4,5.000018 0.0096,4.774733 -0.234092,5.27971 -0.361686,0.749127 -1.401433,1.259028 -2.252395,1.104555 -0.332523,-0.06042 -0.898095,-0.268211 -0.898095,-0.33 0,-0.0205 -0.03176,-0.03719 -0.07083,-0.03719 -0.15988,0 -0.643169,-0.601489 -0.788989,-0.98152 l -0.138788,-0.362535 2.58e-4,-3.876326 c 2.6e-4,-4.806174 0.0023,-4.791136 -0.756961,-5.295294 -0.33148,-0.220364 -2.229221,-0.365268 -2.402383,-0.183455"
   id="path0"
   sodipodi:nodetypes="csccsccsccccccccsccccccccsccccccccccccsccccccsscccccccccssccccc" /><g
   transform="matrix(1.0000426,0,0,1,0.499958,0.5)"
   id="g21"
   style="fill:#ffffff;opacity:0.75;fill-opacity:1"><path
     inkscape:connector-curvature="0"
     d="m 40.03,7.531 c 3.712,4.084 5.969,9.514 5.969,15.469 0,12.703 -10.297,23 -23,23 C 17.045,46 11.615,43.744 7.53,40.031 11.708,44.322 17.54,47 23.999,47 c 12.703,0 23,-10.298 23,-23 0,-6.462 -2.677,-12.291 -6.969,-16.469 z"
     style="opacity:0.1;fill:#ffffff;fill-opacity:1"
     id="path19" /></g></svg>